<?xml version="1.0" standalone="no"?>
<!DOCTYPE svg PUBLIC "-//W3C//DTD SVG 20010904//EN"
 "http://www.w3.org/TR/2001/REC-SVG-20010904/DTD/svg10.dtd">
<svg version="1.0" xmlns="http://www.w3.org/2000/svg"
 width="225.000000pt" height="225.000000pt" viewBox="0 0 225.000000 225.000000"
 preserveAspectRatio="xMidYMid meet">

<g transform="translate(0.000000,225.000000) scale(0.100000,-0.100000)"
fill="#000000" stroke="none">
<path d="M175 2090 c3 -5 24 -10 45 -10 69 0 139 -20 145 -41 3 -10 7 -28 10
-38 5 -17 0 -20 -36 -23 -59 -4 -74 -31 -36 -64 50 -43 128 -25 112 26 -6 18
-2 20 29 20 30 0 37 -4 42 -25 8 -31 24 -33 24 -2 0 17 6 23 23 22 38 0 34 20
-5 23 -22 2 -38 8 -38 16 0 7 -7 21 -16 32 -15 18 -15 17 -10 -14 6 -32 5 -33
-26 -30 -28 3 -34 8 -43 43 -15 55 -56 75 -153 75 -46 0 -71 -4 -67 -10z m213
-152 c3 -14 -3 -18 -26 -18 -36 0 -63 26 -35 33 32 9 58 2 61 -15z"/>
<path d="M610 2031 c0 -30 21 -114 31 -125 18 -20 19 4 3 65 -19 70 -34 97
-34 60z"/>
<path d="M685 2030 c-3 -6 -5 -10 -3 -10 2 0 27 -9 56 -20 34 -13 52 -16 50
-9 -6 17 -96 51 -103 39z"/>
<path d="M900 1988 c0 -11 -8 -27 -17 -34 -17 -12 -17 -14 -1 -30 17 -17 18
-17 38 1 16 14 23 16 32 7 14 -14 28 -16 28 -3 0 5 -13 14 -30 21 -37 15 -40
34 -4 27 30 -5 21 4 -18 21 -26 11 -28 10 -28 -10z m5 -48 c3 -5 1 -10 -4 -10
-6 0 -11 5 -11 10 0 6 2 10 4 10 3 0 8 -4 11 -10z"/>
<path d="M720 1952 c0 -11 45 -32 70 -32 30 0 24 17 -7 24 -16 4 -36 9 -45 12
-10 3 -18 1 -18 -4z"/>
<path d="M1081 1951 c14 -4 72 -14 130 -20 57 -7 140 -21 184 -31 171 -38 313
-70 385 -85 41 -9 101 -26 133 -37 50 -18 82 -19 65 -3 -9 9 -137 46 -228 66
-146 32 -223 50 -275 64 -79 23 -455 67 -394 46z"/>
<path d="M2106 1838 c-29 -46 -70 -138 -63 -144 3 -4 21 3 38 14 l32 20 28
-20 c21 -16 36 -19 63 -14 51 10 60 30 9 22 -31 -6 -44 -3 -64 13 -17 13 -34
18 -49 14 -23 -6 -23 -5 9 50 18 32 27 58 22 62 -6 3 -17 -5 -25 -17z"/>
<path d="M1045 1774 c-62 -10 -202 -69 -267 -111 -37 -25 -105 -82 -151 -127
-66 -66 -93 -101 -125 -167 -49 -100 -78 -206 -88 -323 -4 -47 -9 -86 -11 -86
-2 0 -14 6 -26 14 -43 27 -122 41 -165 28 -35 -11 -41 -17 -51 -56 -16 -64
-14 -186 5 -260 34 -137 132 -249 280 -321 92 -45 147 -53 197 -27 l37 20 6
-23 c8 -30 51 -70 93 -84 19 -6 62 -11 96 -11 56 0 66 3 94 29 l32 30 32 -19
c44 -26 133 -35 193 -21 50 13 114 55 101 67 -4 4 -15 0 -25 -9 -71 -64 -241
-61 -297 5 -19 22 -25 41 -25 74 0 63 22 99 83 134 57 32 57 39 0 15 -19 -8
-37 -15 -39 -15 -9 0 -3 59 6 65 6 4 8 11 5 16 -10 16 4 46 28 57 17 8 18 11
5 11 -9 1 -20 -3 -23 -9 -9 -15 -79 -12 -101 5 -10 8 -30 15 -45 15 -14 0 -31
6 -38 13 -11 10 -13 9 -9 -3 3 -8 -10 -30 -27 -49 -28 -29 -35 -32 -54 -21
-22 11 -22 11 -8 -12 9 -13 20 -42 26 -65 42 -156 -199 -200 -250 -45 -6 18
-9 64 -7 102 2 47 0 66 -8 63 -16 -6 -71 122 -88 209 -30 144 12 364 97 518
17 30 69 93 116 140 133 131 261 197 432 222 106 16 297 -2 402 -37 186 -64
353 -226 422 -408 84 -224 97 -420 38 -559 -14 -34 -20 -38 -53 -38 -45 0
-177 -26 -240 -47 -115 -37 -235 -125 -272 -197 -30 -58 -50 -138 -38 -150 6
-6 10 -18 10 -28 0 -23 75 -97 117 -114 42 -18 167 -18 227 0 149 45 346 286
346 425 0 43 -4 53 -31 75 -17 14 -39 26 -49 26 -18 0 -18 2 3 48 20 42 22 63
22 212 0 160 -1 168 -33 265 -62 184 -141 303 -262 392 -71 52 -125 79 -230
115 -76 26 -102 29 -235 33 -82 2 -163 1 -180 -1z m-111 -1109 c11 -8 35 -15
53 -15 26 0 33 -4 33 -20 0 -29 -20 -109 -41 -162 -23 -56 -24 -93 -5 -130 14
-26 13 -29 -20 -58 -39 -33 -74 -38 -150 -19 -57 15 -114 66 -114 103 0 17 7
29 18 32 42 14 64 30 84 62 17 28 19 43 14 89 -6 51 -4 57 25 94 33 43 68 50
103 24z"/>
<path d="M304 1315 c-16 -39 -18 -64 -5 -83 5 -9 8 1 8 27 0 22 8 52 17 66 9
14 12 25 6 25 -6 0 -18 -16 -26 -35z"/>
<path d="M334 1285 c-9 -37 0 -40 13 -5 6 17 7 30 2 30 -5 0 -11 -11 -15 -25z"/>
<path d="M798 1145 c-54 -50 -102 -256 -78 -331 10 -29 16 -34 44 -34 29 0 36
6 58 48 31 58 58 171 58 247 0 94 -29 119 -82 70z m60 -10 c26 -58 1 -119 -46
-113 -24 3 -27 8 -30 45 -3 35 2 48 22 68 31 31 40 31 54 0z m-83 -321 c8 3
15 1 15 -5 0 -5 -7 -12 -15 -15 -16 -7 -45 12 -45 28 0 6 7 5 15 -2 8 -7 22
-10 30 -6z"/>
<path d="M0 1088 c0 -34 23 -78 41 -78 6 0 3 8 -7 17 -15 16 -15 17 2 23 16 6
16 7 -4 12 -27 8 -29 28 -2 28 11 0 20 5 20 10 0 6 -4 10 -9 10 -5 0 -16 3
-25 6 -13 5 -16 -1 -16 -28z"/>
<path d="M1150 1088 c-27 -29 -48 -102 -62 -209 -10 -78 -9 -90 8 -125 20 -42
53 -55 80 -33 58 48 86 317 39 369 -23 26 -39 25 -65 -2z m58 -10 c7 -7 12
-30 12 -53 0 -46 -13 -65 -47 -65 -33 0 -46 32 -33 79 13 48 42 65 68 39z
m-50 -331 c18 7 15 -16 -3 -23 -8 -4 -22 -1 -30 6 -21 17 -19 33 3 22 9 -5 23
-7 30 -5z"/>
<path d="M6 971 c-9 -14 8 -62 26 -72 15 -8 17 -13 7 -25 -8 -10 -8 -14 0 -14
23 0 25 33 3 48 -27 18 -28 40 -2 44 18 3 18 4 -5 15 -14 6 -27 8 -29 4z"/>
<path d="M2103 955 c28 -21 21 -38 -13 -31 -19 3 -29 2 -25 -4 3 -6 12 -10 20
-10 7 0 22 -16 34 -35 11 -19 25 -35 31 -35 15 0 12 17 -5 24 -23 8 -18 29 5
23 11 -3 20 -2 20 3 0 4 -9 10 -20 13 -31 8 -24 28 8 22 26 -5 26 -5 5 6 -13
7 -23 17 -23 23 0 6 -12 12 -27 13 -25 1 -26 0 -10 -12z"/>
<path d="M2090 821 c0 -6 7 -11 16 -11 12 0 15 -6 10 -25 -5 -20 -2 -27 19
-37 15 -7 25 -20 25 -32 0 -17 2 -18 10 -6 15 23 12 29 -15 42 -14 6 -25 19
-25 30 0 19 15 24 25 8 3 -5 16 -10 28 -10 20 1 19 2 -6 16 -16 9 -37 17 -48
19 -10 2 -24 7 -29 10 -6 3 -10 1 -10 -4z"/>
</g>
</svg>
